<?xml version="1.0" encoding="UTF-8" standalone="no"?>
<svg
   version="1.1"
   width="2600.2769pt"
   height="902.05908pt"
   id="svg995"
   viewBox="0 0 2600.2769 902.05908"
   xmlns="http://www.w3.org/2000/svg"
   xmlns:svg="http://www.w3.org/2000/svg">
  <defs
     id="defs995" />
  <path
     d="m 1772.2347,315.96976 h 248.8725 c 2.497,0 4.5403,2.0432 4.5403,4.5402 v 248.8726 c 0,2.497 -2.0433,4.5399 -4.5403,4.5399 h -248.8725 c -2.4971,0 -4.54,-2.0429 -4.54,-4.5399 v -248.8726 c 0,-2.497 2.0429,-4.5402 4.54,-4.5402 z"
     style="fill:none;stroke:#000000;stroke-width:0.216;stroke-linecap:butt;stroke-linejoin:miter;stroke-dasharray:none"
     id="path278" />
  <path
     d="m 2047.1908,371.52876 h -9.6378 v 146.8347 h 9.6378 v 77.1023 h -77.1024 v -9.6378 h -146.8346 v 9.6378 h -77.1024 v -77.1023 h 9.6378 v -146.8347 h -9.6378 v -77.1023 h 301.0394 z"
     style="fill:none;stroke:#000000;stroke-width:0.216;stroke-linecap:butt;stroke-linejoin:miter;stroke-dasharray:none"
     id="path279" />
  <path
     d="m 1590.4024,294.42646 h 51.0236 v 9.6378 h 39.1181 v -9.6378 h 51.5905 v 76.5354 h 9.6378 v 147.9685 h -9.6378 v 76.5354 h -51.5905 v -9.6378 h -39.1181 v 9.6378 h -51.0236 v -77.1023 h 9.6378 v -146.8347 h -9.6378 z"
     style="fill:none;stroke:#1b1918;stroke-width:0.216;stroke-linecap:butt;stroke-linejoin:miter;stroke-dasharray:none"
     id="path280" />
  <path
     d="m 1590.4024,825.41566 v -147.9685 h 9.6378 v -66.8977 h 51.5905 v -9.6377 h 40.252 v 9.6377 h 51.0236 v 66.8977 h -9.6378 v 147.9685 h 9.6378 v 66.8976 h -51.0236 l 0.2834,9.6378 h -40.2519 l -0.2835,-9.6378 h -51.5905 v -66.8976 z"
     style="fill:none;stroke:#1b1918;stroke-width:0.216;stroke-linecap:butt;stroke-linejoin:miter;stroke-dasharray:none"
     id="path281" />
  <path
     d="m 1746.5539,825.41566 v -147.9685 h 9.6378 v -66.8977 h 66.8976 v -9.6377 h 147.9686 v 9.6377 h 66.8976 v 66.8977 h 9.6378 v 147.9685 h -9.6378 v 66.8976 h -66.8976 l 0.2834,9.6378 h -147.9685 l -0.2835,-9.6378 h -66.8976 v -66.8976 z"
     style="fill:none;stroke:#1b1918;stroke-width:0.216;stroke-linecap:butt;stroke-linejoin:miter;stroke-dasharray:none"
     id="path282" />
  <path
     d="m 2051.1414,891.11936 v -67.4646 h 9.6378 v -146.8346 h -9.6378 v -67.4646 h 50.4567 v -9.6378 h 40.252 v 9.6378 h 44.7874 v 281.7638 h -44.7874 v 9.6378 h -40.252 v -9.6378 z"
     style="fill:none;stroke:#1b1918;stroke-width:0.216;stroke-linecap:butt;stroke-linejoin:miter;stroke-dasharray:none"
     id="path283" />
  <path
     d="m 1590.4023,163.12236 10e-5,125.8582 281.7638,-1e-4 -10e-5,-125.8583 z"
     style="fill:none;stroke:#1b1918;stroke-width:0.216;stroke-linecap:butt;stroke-linejoin:miter;stroke-dasharray:none"
     id="path284" />
  <path
     d="m 2166.5293,288.98056 10e-5,-125.8583 -281.7638,-1e-4 v 125.8583 z"
     style="fill:none;stroke:#1b1918;stroke-width:0.216;stroke-linecap:butt;stroke-linejoin:miter;stroke-dasharray:none"
     id="path285" />
  <g
     id="Layer1017"
     transform="translate(5909.0953,-1533.0696)">
    <path
       d="m -3588.9894,1908.7889 v 284.0933 q 0,3.9376 3.9376,3.9376 h 272.1878 q 3.9376,0 3.9376,-3.9376 v -284.0933 q 0,-3.9376 -3.9376,-3.9376 h -272.1878 q -3.9376,0 -3.9376,3.9376 z"
       style="fill:none;stroke:#1b1918;stroke-width:0.216;stroke-linecap:butt;stroke-linejoin:miter;stroke-dasharray:none"
       id="path286" />
    <path
       d="m -3474.4429,2129.767 v 6.9707 h -5.4699 v 28.381 h -9.1995 v -28.381 h -5.4699 v -6.9707 z m 23.1231,20.6633 c 0,3.5601 -0.081,5.988 -0.2487,7.4687 -0.1676,1.4805 -0.6105,3.0069 -1.4919,4.2322 -0.8814,1.2253 -2.2289,2.082 -3.7294,2.7385 -1.6525,0.6916 -3.4308,1.0308 -5.2214,0.9958 -1.7075,0.01 -3.3992,-0.3315 -4.9727,-0.9958 -1.5077,-0.6199 -2.8116,-1.4988 -3.7294,-2.7385 -0.9178,-1.2397 -1.5665,-2.5246 -1.7404,-3.9834 -0.1741,-1.4585 -0.2487,-4.0709 -0.2487,-7.7175 v -5.975 c 0,-3.56 0.081,-6.2371 0.2487,-7.7176 0.1676,-1.4806 0.859,-2.7579 1.7404,-3.9833 0.8811,-1.2214 2.0871,-2.1704 3.4808,-2.7385 1.6524,-0.6916 3.4307,-1.0308 5.2213,-0.9959 1.894,0 3.7137,0.127 5.2214,0.747 1.5077,0.6198 2.5632,1.7476 3.4808,2.9874 0.9177,1.2398 1.5664,2.5247 1.7405,3.9833 0.1739,1.4586 0.2487,4.0709 0.2487,7.7176 z m -9.1996,-11.7009 c 0,-1.6484 -0.066,-2.528 -0.2485,-2.9875 -0.109,-0.2347 -0.2857,-0.4313 -0.5073,-0.5644 -0.2217,-0.1331 -0.4779,-0.1967 -0.736,-0.1825 -0.196,-0.021 -0.3938,0.015 -0.5699,0.1034 -0.1762,0.088 -0.3236,0.2251 -0.4245,0.3945 -0.255,0.3719 -0.4973,1.4131 -0.4973,3.2365 v 16.6799 c 0,2.057 0.081,3.2531 0.2486,3.7344 0.1676,0.4815 0.6312,0.747 1.2431,0.747 0.6267,0 1.0692,-0.1925 1.2433,-0.747 0.1739,-0.5544 0.2485,-1.8973 0.2485,-3.9832 z m 12.6804,-8.9624 h 6.4644 c 4.3415,0 7.1651,0.1622 8.7023,0.4978 1.537,0.3356 3.0084,1.1111 3.9781,2.4896 0.9697,1.3785 1.2431,3.7022 1.2431,6.7218 0,2.7569 -0.3097,4.5288 -0.9945,5.4771 -0.6847,0.9482 -1.9677,1.5529 -3.9782,1.7426 1.8211,0.4521 3.103,0.9841 3.7296,1.7427 0.6265,0.7586 1.0902,1.357 1.2431,1.9917 0.153,0.6346 0,2.369 0,5.2281 v 9.4603 h -8.4535 v -11.7008 c 0,-1.8965 -0.199,-3.0334 -0.4973,-3.4856 -0.2983,-0.452 -0.9697,-0.7468 -2.2377,-0.7468 v 15.9332 h -9.1994 z m 9.1994,5.9749 v 7.9666 c 1.0343,0 1.8225,-0.2134 2.2377,-0.4979 0.4152,-0.2846 0.4973,-1.1776 0.4973,-2.7385 v -1.9917 c 0,-1.1233 -0.097,-1.8906 -0.4973,-2.2406 -0.4004,-0.35 -1.1743,-0.4979 -2.2377,-0.4979 z m 35.306,-5.9749 v 35.3517 h -7.9563 l -4.7241,-16.1822 v 16.1822 h -7.7075 v -35.3517 h 7.7075 l 4.9727,15.9331 v -15.9331 z"
       style="fill:none;stroke:#1b1918;stroke-width:0.216;stroke-linecap:butt;stroke-linejoin:miter;stroke-dasharray:none"
       id="path287" />
    <path
       d="m -3588.9895,2115.9666 v 62.428 h 280.063 v -62.428 z"
       style="fill:none;stroke:#1b1918;stroke-width:0.216;stroke-linecap:butt;stroke-linejoin:miter;stroke-dasharray:none"
       id="path288" />
  </g>
  <path
     d="m 2200.8286,294.99336 h -51.0237 v 9.6378 h -39.1181 v -9.6378 h -51.5905 v 76.5354 h -9.6378 v 147.9685 h 9.6378 v 76.5355 h 51.5905 v -9.6378 h 39.1181 v 9.6378 h 51.0237 v -77.1024 h -9.6378 v -146.8346 h 9.6378 z"
     style="fill:none;stroke:#1b1918;stroke-width:0.216;stroke-linecap:butt;stroke-linejoin:miter;stroke-dasharray:none"
     id="path289" />
  <g
     id="Layer1018"
     transform="translate(5909.0953,-1533.0696)">
    <path
       d="m -5144.9366,1756.2489 h 248.8725 c 2.4971,0 4.5403,2.0433 4.5403,4.5403 v 248.8725 c 0,2.4971 -2.0432,4.54 -4.5403,4.54 h -248.8725 c -2.497,0 -4.54,-2.0429 -4.54,-4.54 v -248.8725 c 0,-2.497 2.043,-4.5403 4.54,-4.5403 z"
       style="fill:none;stroke:#000000;stroke-width:0.216;stroke-linecap:butt;stroke-linejoin:miter;stroke-dasharray:none"
       id="path290" />
    <path
       d="m -4871.1144,1811.808 h -8.5039 v 146.8346 h 8.5039 v 75.9685 h -75.9685 v -8.5039 h -146.8346 v 8.5039 h -75.9685 v -75.9685 h 8.5039 V 1811.808 h -8.5039 v -75.9685 h 298.7716 z"
       style="fill:none;stroke:#000000;stroke-width:0.216;stroke-linecap:butt;stroke-linejoin:miter;stroke-dasharray:none"
       id="path291" />
  </g>
  <path
     d="m 1189.351,202.76986 h -49.8897 v 8.5039 h -39.1182 v -8.5039 h -51.5905 v 75.4016 h -8.5039 v 147.9685 h 8.5039 v 75.4015 h 51.5905 v -8.5039 h 39.1182 v 8.5039 h 49.8897 v -75.9685 h -8.5039 v -146.8346 h 8.5039 z"
     style="fill:none;stroke:#1b1918;stroke-width:0.216;stroke-linecap:butt;stroke-linejoin:miter;stroke-dasharray:none"
     id="path292" />
  <path
     d="m 590.1069,203.96376 h 49.8898 v 8.504 h 39.1181 v -8.504 h 51.5905 v 75.4016 h 8.504 v 147.9685 h -8.504 v 75.4016 h -51.5905 v -8.5039 h -39.1181 v 8.5039 h -49.8898 v -75.9685 h 8.504 v -146.8346 h -8.504 z"
     style="fill:none;stroke:#1b1918;stroke-width:0.216;stroke-linecap:butt;stroke-linejoin:miter;stroke-dasharray:none"
     id="path293" />
  <path
     d="m 0.108,427.33386 v -147.9685 h 8.504 v -66.8976 h 51.5905 v -8.504 h 40.252 v 8.504 h 49.8897 v 66.8976 h -8.5039 v 147.9685 h 8.5039 v 66.8977 h -49.8897 v 8.5039 h -40.252 v -8.5039 H 8.612 v -66.8977 z"
     style="fill:none;stroke:#1b1918;stroke-width:0.216;stroke-linecap:butt;stroke-linejoin:miter;stroke-dasharray:none"
     id="path294" />
  <path
     d="m 150.3068,427.33386 v -147.9685 h 8.504 v -66.8976 h 66.8976 v -8.504 h 147.9685 v 8.504 h 66.8976 v 66.8976 h 8.504 v 147.9685 h -8.504 v 66.8977 h -66.8976 v 8.5039 H 225.7084 v -8.5039 h -66.8976 v -66.8977 z"
     style="fill:none;stroke:#1b1918;stroke-width:0.216;stroke-linecap:butt;stroke-linejoin:miter;stroke-dasharray:none"
     id="path295" />
  <path
     d="m 450.6424,493.03756 v -67.4646 h 8.5039 v -146.8346 h -8.5039 v -67.4646 h 49.3228 v -8.5039 h 40.252 v 8.5039 h 44.7874 v 281.7638 h -44.7874 v 8.5039 h -40.252 v -8.5039 z"
     style="fill:none;stroke:#1b1918;stroke-width:0.216;stroke-linecap:butt;stroke-linejoin:miter;stroke-dasharray:none"
     id="path296" />
  <path
     d="M 1447.4092,206.17146 H 1321.551 v 281.7638 h 125.8582 z"
     style="fill:none;stroke:#1b1918;stroke-width:0.216;stroke-linecap:butt;stroke-linejoin:miter;stroke-dasharray:none"
     id="path297" />
  <path
     d="M 1318.3093,205.88796 H 1192.451 v 281.7638 h 125.8583 z"
     style="fill:none;stroke:#1b1918;stroke-width:0.216;stroke-linecap:butt;stroke-linejoin:miter;stroke-dasharray:none"
     id="path298" />
  <text
     x="569.28723"
     y="143.62488"
     id="text299"><tspan
       font-family="Arial"
       font-size="110.5px"
       fill="#1b1918"
       id="tspan298">3</tspan><tspan
       font-family="Arial"
       font-size="110.5px"
       fill="#1b1918"
       id="tspan299">ММ</tspan></text>
  <text
     x="1740.6075"
     y="79.421875"
     id="text301"><tspan
       font-family="Arial"
       font-size="110.5px"
       fill="#1b1918"
       id="tspan300">3,4</tspan><tspan
       font-family="Arial"
       font-size="110.5px"
       fill="#1b1918"
       id="tspan301">ММ</tspan></text>
</svg>
