<?xml version="1.0" encoding="UTF-8" standalone="no"?>
<svg version="1.1" width="659.8mm" height="154.8mm" viewBox="0 0 659.8 154.8" xmlns="http://www.w3.org/2000/svg">
  <text x="0" y="34" font-family="Arial" font-size="39" fill="#1b1918">3,2ММ</text>
  <path d="M 0,127 L 0,74.8 L 3.2,74.8 L 3.2,51.2 L 21.4,51.2 L 21.4,48 L 35.6,48 L 35.6,51.2 L 53.4,51.2 L 53.4,74.8 L 50.2,74.8 L 50.2,127 L 53.4,127 L 53.4,150.6 L 35.6,150.6 L 35.6,153.8 L 21.4,153.8 L 21.4,150.6 L 3.2,150.6 L 3.2,127 Z" style="fill:none;stroke:#1b1918;stroke-width:0.0762;stroke-linecap:butt;stroke-linejoin:miter" />
  <path d="M 59.4,127 L 59.4,74.8 L 62.6,74.8 L 62.6,51.2 L 86.2,51.2 L 86.2,48 L 138.4,48 L 138.4,51.2 L 162,51.2 L 162,74.8 L 165.2,74.8 L 165.2,127 L 162,127 L 162,150.6 L 138.4,150.6 L 138.4,153.8 L 86.2,153.8 L 86.2,150.6 L 62.6,150.6 L 62.6,127 Z" style="fill:none;stroke:#1b1918;stroke-width:0.0762;stroke-linecap:butt;stroke-linejoin:miter" />
  <path d="M 171.2,150.6 L 171.2,126.8 L 174.4,126.8 L 174.4,75 L 171.2,75 L 171.2,51.2 L 188.8,51.2 L 188.8,48 L 203,48 L 203,51.2 L 218.8,51.2 L 218.8,150.6 L 203,150.6 L 203,153.8 L 188.8,153.8 L 188.8,150.6 Z" style="fill:none;stroke:#1b1918;stroke-width:0.0762;stroke-linecap:butt;stroke-linejoin:miter" />
  <path d="M 224.8,48 L 242.6,48 L 242.6,51.2 L 256.4,51.2 L 256.4,48 L 274.6,48 L 274.6,74.8 L 277.8,74.8 L 277.8,127 L 274.6,127 L 274.6,153.8 L 256.4,153.8 L 256.4,150.6 L 242.6,150.6 L 242.6,153.8 L 224.8,153.8 L 224.8,126.8 L 228,126.8 L 228,75 L 224.8,75 Z" style="fill:none;stroke:#1b1918;stroke-width:0.0762;stroke-linecap:butt;stroke-linejoin:miter" />
  <path d="M 336.8,48 L 319,48 L 319,51.2 L 305.2,51.2 L 305.2,48 L 287,48 L 287,74.8 L 283.8,74.8 L 283.8,127 L 287,127 L 287,153.8 L 305.2,153.8 L 305.2,150.6 L 319,150.6 L 319,153.8 L 336.8,153.8 L 336.8,126.8 L 333.6,126.8 L 333.6,75 L 336.8,75 Z" style="fill:none;stroke:#1b1918;stroke-width:0.0762;stroke-linecap:butt;stroke-linejoin:miter" />
  <path d="M 448.6,75 L 445.4,75 L 445.4,126.8 L 448.6,126.8 L 448.6,153.8 L 421.6,153.8 L 421.6,150.6 L 369.8,150.6 L 369.8,153.8 L 342.8,153.8 L 342.8,126.8 L 346,126.8 L 346,75 L 342.8,75 L 342.8,48 L 448.6,48 Z" style="fill:none;stroke:#000000;stroke-width:0.0762;stroke-linecap:butt;stroke-linejoin:miter" />
  <path d="M 351.8,55.4 L 439.6,55.4 Q 441.2,55.4 441.2,57 L 441.2,144.8 Q 441.2,146.4 439.6,146.4 L 351.8,146.4 Q 350.2,146.4 350.2,144.8 L 350.2,57 Q 350.2,55.4 351.8,55.4 Z" style="fill:none;stroke:#000000;stroke-width:0.0762;stroke-linecap:butt;stroke-linejoin:miter" />
  <path d="M 454.6,48 L 554,48 L 554,92.4 L 454.6,92.4 Z" style="fill:none;stroke:#1b1918;stroke-width:0.0762;stroke-linecap:butt;stroke-linejoin:miter" />
  <path d="M 454.6,98.4 L 554,98.4 L 554,142.8 L 454.6,142.8 Z" style="fill:none;stroke:#1b1918;stroke-width:0.0762;stroke-linecap:butt;stroke-linejoin:miter" />
  <path d="M 561.3891,48 L 657.4109,48 Q 658.8,48 658.8,49.3891 L 658.8,149.6109 Q 658.8,151 657.4109,151 L 561.3891,151 Q 560,151 560,149.6109 L 560,49.3891 Q 560,48 561.3891,48 Z" style="fill:none;stroke:#1b1918;stroke-width:0.0762;stroke-linecap:butt;stroke-linejoin:miter" />
  <path d="M 560,122.4767 L 658.8,122.4767 L 658.8,144.4999 L 560,144.4999 Z" style="fill:none;stroke:#1b1918;stroke-width:0.0762;stroke-linecap:butt;stroke-linejoin:miter" />
  <g transform="translate(600.4065,127.3576) scale(0.35277778)">
    <path d="m 0,0 v 6.9707 h -5.4699 v 28.381 h -9.1995 v -28.381 h -5.4699 v -6.9707 z m 23.1231,20.6633 c 0,3.5601 -0.081,5.988 -0.2487,7.4687 -0.1676,1.4805 -0.6105,3.0069 -1.4919,4.2322 -0.8814,1.2253 -2.2289,2.082 -3.7294,2.7385 -1.6525,0.6916 -3.4308,1.0308 -5.2214,0.9958 -1.7075,0.01 -3.3992,-0.3315 -4.9727,-0.9958 -1.5077,-0.6199 -2.8116,-1.4988 -3.7294,-2.7385 -0.9178,-1.2397 -1.5665,-2.5246 -1.7404,-3.9834 -0.1741,-1.4585 -0.2487,-4.0709 -0.2487,-7.7175 v -5.975 c 0,-3.56 0.081,-6.2371 0.2487,-7.7176 0.1676,-1.4806 0.859,-2.7579 1.7404,-3.9833 0.8811,-1.2214 2.0871,-2.1704 3.4808,-2.7385 1.6524,-0.6916 3.4307,-1.0308 5.2213,-0.9959 1.894,0 3.7137,0.127 5.2214,0.747 1.5077,0.6198 2.5632,1.7476 3.4808,2.9874 0.9177,1.2398 1.5664,2.5247 1.7405,3.9833 0.1739,1.4586 0.2487,4.0709 0.2487,7.7176 z m -9.1996,-11.7009 c 0,-1.6484 -0.066,-2.528 -0.2485,-2.9875 -0.109,-0.2347 -0.2857,-0.4313 -0.5073,-0.5644 -0.2217,-0.1331 -0.4779,-0.1967 -0.736,-0.1825 -0.196,-0.021 -0.3938,0.015 -0.5699,0.1034 -0.1762,0.088 -0.3236,0.2251 -0.4245,0.3945 -0.255,0.3719 -0.4973,1.4131 -0.4973,3.2365 v 16.6799 c 0,2.057 0.081,3.2531 0.2486,3.7344 0.1676,0.4815 0.6312,0.747 1.2431,0.747 0.6267,0 1.0692,-0.1925 1.2433,-0.747 0.1739,-0.5544 0.2485,-1.8973 0.2485,-3.9832 z m 12.6804,-8.9624 h 6.4644 c 4.3415,0 7.1651,0.1622 8.7023,0.4978 1.537,0.3356 3.0084,1.1111 3.9781,2.4896 0.9697,1.3785 1.2431,3.7022 1.2431,6.7218 0,2.7569 -0.3097,4.5288 -0.9945,5.4771 -0.6847,0.9482 -1.9677,1.5529 -3.9782,1.7426 1.8211,0.4521 3.103,0.9841 3.7296,1.7427 0.6265,0.7586 1.0902,1.357 1.2431,1.9917 0.153,0.6346 0,2.369 0,5.2281 v 9.4603 h -8.4535 v -11.7008 c 0,-1.8965 -0.199,-3.0334 -0.4973,-3.4856 -0.2983,-0.452 -0.9697,-0.7468 -2.2377,-0.7468 v 15.9332 h -9.1994 z m 9.1994,5.9749 v 7.9666 c 1.0343,0 1.8225,-0.2134 2.2377,-0.4979 0.4152,-0.2846 0.4973,-1.1776 0.4973,-2.7385 v -1.9917 c 0,-1.1233 -0.097,-1.8906 -0.4973,-2.2406 -0.4004,-0.35 -1.1743,-0.4979 -2.2377,-0.4979 z m 35.306,-5.9749 v 35.3517 h -7.9563 l -4.7241,-16.1822 v 16.1822 h -7.7075 v -35.3517 h 7.7075 l 4.9727,15.9331 v -15.9331 z" style="fill:none;stroke:#1b1918;stroke-width:0.2160;stroke-linecap:butt;stroke-linejoin:miter" />
  </g>
</svg>
